<?xml version="1.0" encoding="utf-8"?>
<!-- Generator: Adobe Illustrator 27.2.0, SVG Export Plug-In . SVG Version: 6.00 Build 0)  -->
<svg version="1.1" id="Layer_2_00000021090635072791294060000004414615680584826278_"
	 xmlns="http://www.w3.org/2000/svg" xmlns:xlink="http://www.w3.org/1999/xlink" x="0px" y="0px" viewBox="0 0 35.4 36.1"
	 style="enable-background:new 0 0 35.4 36.1;" xml:space="preserve">
<style type="text/css">
	.st0{fill:none;stroke:#000000;stroke-width:3;stroke-miterlimit:10;}
</style>
<g id="Layer_1-2">
	<g>
		<path class="st0" d="M7.1,2.1c-2.8,0-5,2.2-5,5V29c0,2.8,2.2,5,5,5h21.2c2.8,0,5-2.2,5-5V11l-8.8-8.8L7.1,2.1L7.1,2.1z"/>
		<path class="st0" d="M9.8,19.6h15.5c1.2,0,2.2,1,2.2,2.2V34H7.6V21.8C7.6,20.6,8.6,19.6,9.8,19.6z"/>
		<path class="st0" d="M7.6,2.1h15.8v6.6c0,1.2-1,2.2-2.2,2.2H9.8c-1.2,0-2.2-1-2.2-2.2L7.6,2.1L7.6,2.1z"/>
	</g>
</g>
</svg>
