<?xml version="1.0" encoding="UTF-8"?>
<svg id="Layer_2" data-name="Layer 2" xmlns="http://www.w3.org/2000/svg" viewBox="0 0 55.23 55.23">
  <defs>
    <style>
      .cls-1 {
        fill: #231f20;
      }
    </style>
  </defs>
  <g id="Layer_1-2" data-name="Layer 1">
    <g>
      <path class="cls-1" d="m27.62,55.23C12.39,55.23,0,42.84,0,27.62S12.39,0,27.62,0s27.62,12.39,27.62,27.62-12.39,27.62-27.62,27.62Zm0-49.23C15.7,6,6,15.7,6,27.62s9.7,21.62,21.62,21.62,21.62-9.7,21.62-21.62S39.54,6,27.62,6Z"/>
      <path class="cls-1" d="m37.56,39.2c-.54,0-1.08-.15-1.57-.45l-13.37-8.27V12.48c0-1.66,1.34-3,3-3s3,1.34,3,3v14.66l10.52,6.51c1.41.87,1.85,2.72.97,4.13-.57.92-1.55,1.42-2.55,1.42Z"/>
    </g>
  </g>
</svg>